# xmcd
#
# Track frame offsets:
#	150
#	14997
#	28369
#	41744
#	51566
#	64752
#	76595
#	89806
#	101930
#	115270
#	126512
#	139088
#
# Disc length: 2044 seconds
#
# Revision: 0
# Processed by: cddbd v1.5.1PL0 Copyright (c) Steve Scherf et al.
# Submitted via: EasyCDDAExtractor 4.6.9.1
#
DISCID=bb07fa0c
DTITLE=Jimmy Martin and The Sunny Mountain Boys - The King Of Bluegrass Vol. 4
DYEAR=1900
DGENRE=Bluegrass
TTITLE0=Doin' My Time
TTITLE1=Shackles And Chains
TTITLE2=Moonshine Hollow
TTITLE3=Slowly
TTITLE4=Undo What's Been Done
TTITLE5=Arab Bounce
TTITLE6=Wooden Shoes
TTITLE7=Fly Me To Frisco
TTITLE8=Between Fire And Water
TTITLE9=Just Plain Yellow
TTITLE10=The Last Song
TTITLE11=Little Robin
EXTD=
EXTT0=
EXTT1=
EXTT2=
EXTT3=
EXTT4=
EXTT5=
EXTT6=
EXTT7=
EXTT8=
EXTT9=
EXTT10=
EXTT11=
PLAYORDER=
